<?xml version="1.0" encoding="utf-8"?><svg xmlns="http://www.w3.org/2000/svg" xmlns:xlink="http://www.w3.org/1999/xlink"><symbol viewBox="0 0 27 14" id="arrow" xmlns="http://www.w3.org/2000/svg"><path d="M0 7h26m0 0-6.303-6M26 7l-6.303 6"/></symbol><symbol viewBox="0 0 24 14" id="burger-open" xmlns="http://www.w3.org/2000/svg"><path d="M0 1h24M0 7h24M0 13h24"/></symbol><symbol viewBox="0 0 18 21" id="cart" xmlns="http://www.w3.org/2000/svg"><path d="M4 7V5a5 5 0 1 1 10 0v2h3a1 1 0 0 1 1 1v12a1 1 0 0 1-1 1H1a1 1 0 0 1-1-1V8a1 1 0 0 1 1-1h3Zm0 2H2v10h14V9h-2v2h-2V9H6v2H4V9Zm2-2h6V5a3 3 0 0 0-6 0v2Z"/></symbol><symbol viewBox="0 0 20 20" id="close-button" xmlns="http://www.w3.org/2000/svg"><path d="m1 1 9 9m9 9-9-9m0 0 9-9L1 19"/></symbol><symbol viewBox="0 0 14 14" id="copyright" xmlns="http://www.w3.org/2000/svg"><path d="M7 0c3.864 0 7 3.136 7 7s-3.136 7-7 7-7-3.136-7-7 3.136-7 7-7Zm0 1.4A5.598 5.598 0 0 0 1.4 7c0 3.094 2.506 5.6 5.6 5.6s5.6-2.506 5.6-5.6S10.094 1.4 7 1.4Zm0 2.1c1.274 0 2.39.681 3.002 1.7l-1.2.72a2.1 2.1 0 1 0 0 2.16l1.2.72A3.499 3.499 0 0 1 3.5 7c0-1.932 1.568-3.5 3.5-3.5Z"/></symbol><symbol viewBox="0 0 11 18" id="facebook" xmlns="http://www.w3.org/2000/svg"><path d="M6.286 7H11l-.524 2h-4.19v9H4.19V9H0V7h4.19V5.128c0-1.783.195-2.43.56-3.082A3.726 3.726 0 0 1 6.334.534C7.017.186 7.694 0 9.563 0c.546 0 1.026.05 1.437.15V2H9.563c-1.387 0-1.81.078-2.24.298a1.668 1.668 0 0 0-.725.692c-.23.411-.312.814-.312 2.138V7Z"/></symbol><symbol viewBox="0 0 20 20" id="instagram" xmlns="http://www.w3.org/2000/svg"><path d="M10 7a3 3 0 1 0 0 6 3 3 0 0 0 0-6Zm0-2a5 5 0 1 1 0 10 5 5 0 0 1 0-10Zm6.5-.25a1.25 1.25 0 1 1-2.5 0 1.25 1.25 0 0 1 2.5 0ZM10 2c-2.474 0-2.878.007-4.029.058-.784.037-1.31.142-1.798.332a2.886 2.886 0 0 0-1.08.703 2.89 2.89 0 0 0-.704 1.08c-.19.49-.295 1.015-.331 1.798C2.006 7.075 2 7.461 2 10c0 2.474.007 2.878.058 4.029.037.783.142 1.31.331 1.797.17.435.37.748.702 1.08.337.336.65.537 1.08.703.494.191 1.02.297 1.8.333C7.075 17.994 7.461 18 10 18c2.474 0 2.878-.007 4.029-.058.782-.037 1.309-.142 1.797-.331a2.92 2.92 0 0 0 1.08-.702c.337-.337.538-.65.704-1.08.19-.493.296-1.02.332-1.8.052-1.104.058-1.49.058-4.029 0-2.474-.007-2.878-.058-4.029-.037-.782-.142-1.31-.332-1.798a2.91 2.91 0 0 0-.703-1.08 2.884 2.884 0 0 0-1.08-.704c-.49-.19-1.016-.295-1.798-.331C12.925 2.006 12.539 2 10 2Zm0-2c2.717 0 3.056.01 4.122.06 1.065.05 1.79.217 2.428.465.66.254 1.216.598 1.772 1.153.509.5.902 1.105 1.153 1.772.247.637.415 1.363.465 2.428.047 1.066.06 1.405.06 4.122 0 2.717-.01 3.056-.06 4.122-.05 1.065-.218 1.79-.465 2.428a4.883 4.883 0 0 1-1.153 1.772c-.5.508-1.105.902-1.772 1.153-.637.247-1.363.415-2.428.465-1.066.047-1.405.06-4.122.06-2.717 0-3.056-.01-4.122-.06-1.065-.05-1.79-.218-2.428-.465a4.89 4.89 0 0 1-1.772-1.153A4.904 4.904 0 0 1 .525 16.55C.277 15.913.11 15.187.06 14.122.013 13.056 0 12.717 0 10c0-2.717.01-3.056.06-4.122.05-1.066.217-1.79.465-2.428a4.88 4.88 0 0 1 1.153-1.772A4.897 4.897 0 0 1 3.45.525C4.088.277 4.812.11 5.878.06 6.944.013 7.283 0 10 0Z"/></symbol><symbol viewBox="0 0 16 21" id="login" xmlns="http://www.w3.org/2000/svg"><path d="M0 21a8 8 0 0 1 16 0h-2a6 6 0 1 0-12 0H0Zm8-9c-3.315 0-6-2.685-6-6s2.685-6 6-6 6 2.685 6 6-2.685 6-6 6Zm0-2c2.21 0 4-1.79 4-4s-1.79-4-4-4-4 1.79-4 4 1.79 4 4 4Z"/></symbol><symbol viewBox="0 0 131 21" id="logo" xmlns="http://www.w3.org/2000/svg"><path d="M0 .432h3.061l7.474 15.7 7.474-15.7h3.061v20.136h-2.971V6.25l-6.814 14.317h-1.5L2.94 6.25v14.317H0V.432Zm31.984 0h2.942L43.3 20.568h-3.122l-2.1-5.012h-9.275l-2.041 5.012H23.61L31.984.432Zm5.253 12.675-3.782-9.42-3.782 9.42h7.564ZM46.604.432h8.434c2.241 0 3.962.519 5.163 1.556C61.4 3.025 62 4.542 62 6.539c0 1.479-.41 2.737-1.23 3.774-.82 1.018-1.981 1.709-3.482 2.074l4.622 8.18h-3.18l-4.472-7.95h-4.592v7.95h-3.062V.433Zm7.924 9.708c1.34 0 2.401-.298 3.181-.893.8-.615 1.201-1.517 1.201-2.708 0-1.306-.39-2.237-1.17-2.794-.76-.557-1.831-.836-3.212-.836h-4.862v7.23h4.862ZM75.31 21c-2.081 0-3.962-.432-5.643-1.296-1.68-.884-3.001-2.122-3.962-3.716-.96-1.594-1.44-3.419-1.44-5.474 0-2.054.48-3.879 1.44-5.473.96-1.594 2.281-2.833 3.962-3.716C71.347.442 73.23 0 75.31 0c2.08 0 3.962.442 5.642 1.325 1.681.883 3.002 2.122 3.962 3.716.96 1.594 1.441 3.419 1.441 5.473 0 2.055-.48 3.88-1.44 5.474-.961 1.594-2.282 2.832-3.963 3.716-1.68.864-3.561 1.296-5.642 1.296Zm0-2.65c1.48 0 2.821-.317 4.022-.95a7.307 7.307 0 0 0 2.881-2.737c.7-1.191 1.05-2.574 1.05-4.149 0-1.555-.35-2.919-1.05-4.09a6.901 6.901 0 0 0-2.821-2.737c-1.2-.653-2.541-.98-4.022-.98-1.501 0-2.862.318-4.082.951a7.304 7.304 0 0 0-2.882 2.737c-.7 1.19-1.05 2.564-1.05 4.12 0 1.574.35 2.957 1.05 4.148a7.362 7.362 0 0 0 2.852 2.736c1.22.634 2.571.95 4.052.95ZM99.96 21c-2.08 0-3.962-.432-5.643-1.296-1.68-.884-3.001-2.122-3.961-3.716-.96-1.594-1.441-3.419-1.441-5.474 0-2.054.48-3.879 1.44-5.473.961-1.594 2.282-2.833 3.962-3.716C95.998.442 97.88 0 99.96 0s3.962.442 5.643 1.325c1.681.883 3.001 2.122 3.962 3.716.96 1.594 1.44 3.419 1.44 5.473 0 2.055-.48 3.88-1.44 5.474-.961 1.594-2.281 2.832-3.962 3.716-1.681.864-3.562 1.296-5.643 1.296Zm0-2.65c1.481 0 2.821-.317 4.022-.95a7.301 7.301 0 0 0 2.881-2.737c.701-1.191 1.051-2.574 1.051-4.149 0-1.555-.35-2.919-1.051-4.09a6.896 6.896 0 0 0-2.821-2.737c-1.201-.653-2.541-.98-4.022-.98-1.5 0-2.861.318-4.082.951a7.304 7.304 0 0 0-2.881 2.737c-.7 1.19-1.05 2.564-1.05 4.12 0 1.574.35 2.957 1.05 4.148a7.363 7.363 0 0 0 2.851 2.736c1.22.634 2.571.95 4.052.95ZM114.312.432h2.911l10.686 15.181V.433H131v20.135h-2.941L117.374 5.387v15.18h-3.062V.433Z"/></symbol><symbol viewBox="0 0 16 22" id="marker-map" xmlns="http://www.w3.org/2000/svg"><path d="m8 16.485 4.243-4.242a6 6 0 1 0-8.486 0L8 16.485Zm5.657-2.828L8 19.314l-5.657-5.657a8 8 0 1 1 11.314 0ZM1 20h14v2H1v-2Z"/></symbol><symbol viewBox="0 0 20 17" id="twitter" xmlns="http://www.w3.org/2000/svg"><path d="M13.864 2.044c-.758 0-1.485.304-2.026.848a2.997 2.997 0 0 0-.865 2.06l-.028 1.608a.626.626 0 0 1-.209.453.595.595 0 0 1-.47.142L8.71 6.938C6.662 6.652 4.7 5.686 2.818 4.08c-.597 3.38.568 5.722 3.373 7.528l1.742 1.122a.607.607 0 0 1 .28.497.626.626 0 0 1-.246.517l-1.588 1.188c.944.06 1.84.017 2.585-.134 4.704-.962 7.832-4.588 7.832-10.568 0-.488-1.01-2.186-2.932-2.186ZM8.98 4.914a5.087 5.087 0 0 1 .864-2.753A4.908 4.908 0 0 1 12.048.358 4.777 4.777 0 0 1 14.86.105a4.86 4.86 0 0 1 2.479 1.382c.709-.005 1.312.179 2.661-.659-.334 1.675-.498 2.402-1.21 3.402 0 7.804-4.684 11.6-9.436 12.57-3.258.666-7.996-.428-9.354-1.88.692-.055 3.504-.364 5.129-1.583C3.754 12.41-1.72 9.111 1.877.242c1.688 2.02 3.4 3.394 5.135 4.123 1.155.485 1.438.475 1.968.55l-.001-.002Z"/></symbol></svg>